<svg xmlns="http://www.w3.org/2000/svg" viewBox="0 0 32 32" fill="none">
  <!-- Background circle -->
  <circle cx="16" cy="16" r="16" fill="#262626"/>
  <!-- Tooth/pearl shape -->
  <path
    d="M16 6C11.33 6 8 9.33 8 13.33c0 2.67 1.07 4.67 2 6.67.93 2 2 4 2 7.33 0 2 .67 2.67 1.33 2.67s1.33-.67 1.6-2c.27-1.33.67-2 1.07-2s.8.67 1.07 2c.27 1.33.93 2 1.6 2s1.33-.67 1.33-2.67c0-3.33 1.07-5.33 2-7.33.93-2 2-4 2-6.67C24 9.33 20.67 6 16 6z"
    fill="white"
  />
  <!-- Pearl shine highlight -->
  <ellipse cx="12.67" cy="11.33" rx="2" ry="2.67" fill="white" opacity="0.3"/>
</svg>
